<?xml version="1.0" encoding="utf-8"?>
<svg width="924.2051px" height="661.00006px" viewBox="0 0 924.2051 661.00006" version="1.1" xmlns:xlink="http://www.w3.org/1999/xlink" xmlns="http://www.w3.org/2000/svg">
  <g id="Group-9">
    <path d="M228.788 4.00026e-05L76.2621 152.463L-4.03371e-05 230.701L98.338 230.701L140.475 232.763L169.735 262.799L230.795 329L230.795 98.2988C230.795 85.0301 231.51 76.4761 231.052 51.9794C230.595 27.483 230.057 13.9783 228.788 4.00026e-05C228.788 4.00026e-05 228.788 4.00026e-05 228.788 4.00026e-05L228.788 4.00026e-05Z" id="Shape-2-11" fill="#C6D633" fill-opacity="0.49803922" fill-rule="evenodd" stroke="none" />
    <path d="M459.788 16.1L307.262 168.563L231 246.801L329.338 246.801L371.475 248.863L400.735 278.899L461.795 345.1L461.795 114.399C461.795 101.13 462.51 92.576 462.052 68.0794C461.595 43.5829 461.057 30.0783 459.788 16.1C459.788 16.1 459.788 16.1 459.788 16.1L459.788 16.1Z" id="Shape-2-13" fill="#C6D633" fill-opacity="0" fill-rule="evenodd" stroke="none" />
    <path d="M690.988 16.1L538.462 168.563L462.2 246.801L560.538 246.801L602.675 248.863L631.935 278.899L692.995 345.1L692.995 114.399C692.995 101.13 693.71 92.576 693.252 68.0794C692.795 43.5829 692.257 30.0783 690.988 16.1C690.988 16.1 690.988 16.1 690.988 16.1L690.988 16.1Z" id="Shape-2-14" fill="#1E84AB" fill-opacity="0.49803922" fill-rule="evenodd" stroke="none" />
    <path d="M921.788 4.00026e-05L769.262 152.463L693 230.701L791.338 230.701L833.475 232.763L862.735 262.799L923.795 329L923.795 98.2988C923.795 85.0301 924.51 76.4761 924.052 51.9794C923.595 27.483 923.057 13.9783 921.788 4.00026e-05C921.788 4.00026e-05 921.788 4.00026e-05 921.788 4.00026e-05L921.788 4.00026e-05Z" id="Shape-2-15" fill="#C6D633" fill-opacity="0" fill-rule="evenodd" stroke="none" />
    <path d="M921.788 332L769.262 484.463L693 562.701L791.338 562.701L833.475 564.763L862.735 594.799L923.795 661L923.795 430.299C923.795 417.03 924.51 408.476 924.052 383.979C923.595 359.483 923.057 345.978 921.788 332C921.788 332 921.788 332 921.788 332L921.788 332Z" id="Shape-2-19" fill="#C6D633" fill-opacity="0" fill-rule="evenodd" stroke="none" />
  </g>
</svg>