<?xml version="1.0" encoding="utf-8"?>
<svg width="1153.4104px" height="661px" viewBox="0 0 1153.4104 661" version="1.1" xmlns:xlink="http://www.w3.org/1999/xlink" xmlns="http://www.w3.org/2000/svg">
  <path d="M114.001 0L38 76L0 115L49 115L69.996 116.028L84.576 131L115.001 164L115.001 49C115.001 42.3858 115.357 38.1218 115.129 25.9107C114.901 13.6997 114.633 6.9679 114.001 0C114.001 0 114.001 0 114.001 0L114.001 0Z" id="Shape-2-2" fill="#C6D633" fill-rule="evenodd" stroke="none" />
  <path d="M460.796 -494L384.795 -418L346.795 -379L395.795 -379L416.791 -377.972L431.371 -363L461.796 -330L461.796 -445C461.796 -451.614 462.152 -455.878 461.924 -468.089C461.696 -480.3 461.428 -487.032 460.796 -494C460.796 -494 460.796 -494 460.796 -494L460.796 -494Z" id="Shape-2-3" fill="#1E84AB" fill-rule="evenodd" stroke="none" />
  <path d="M460.001 -331L384 -255L346 -216L395 -216L415.996 -214.972L430.576 -200L461.001 -167L461.001 -282C461.001 -288.614 461.357 -292.878 461.129 -305.089C460.901 -317.3 460.633 -324.032 460.001 -331C460.001 -331 460.001 -331 460.001 -331L460.001 -331Z" id="Shape-2-4" fill="#1E84AB" fill-opacity="0" fill-rule="evenodd" stroke="none" />
  <path d="M228.994 -495L76.4674 -342.537L0.2052 -264.299L98.5432 -264.299L140.68 -262.237L169.941 -232.201L231 -166L231.001 -396.701C231.001 -409.97 231.715 -418.524 231.257 -443.021C230.8 -467.517 230.262 -481.022 228.994 -495C228.994 -495 228.994 -495 228.994 -495L228.994 -495Z" id="Shape-2-5" fill="#C6D633" fill-rule="evenodd" stroke="none" />
  <path d="M114.206 0L38.2052 76L0.2052 115L49.2052 115L70.2012 116.028L84.7812 131L115.206 164L115.206 49C115.206 42.3858 115.562 38.1218 115.334 25.9107C115.106 13.6997 114.838 6.9679 114.206 0C114.206 0 114.206 0 114.206 0L114.206 0Z" id="Shape-2-8" fill="#C6D633" fill-rule="evenodd" stroke="none" />
  <path d="M461.206 -494L385.205 -418L347.205 -379L396.205 -379L417.201 -377.972L431.781 -363L462.206 -330L462.206 -445C462.206 -451.614 462.562 -455.878 462.334 -468.089C462.106 -480.3 461.838 -487.032 461.206 -494C461.206 -494 461.206 -494 461.206 -494L461.206 -494Z" id="Shape-2-9" fill="#1E84AB" fill-rule="evenodd" stroke="none" />
  <path d="M460.206 -331L384.205 -255L346.205 -216L395.205 -216L416.201 -214.972L430.781 -200L461.206 -167L461.206 -282C461.206 -288.614 461.562 -292.878 461.334 -305.089C461.106 -317.3 460.838 -324.032 460.206 -331C460.206 -331 460.206 -331 460.206 -331L460.206 -331Z" id="Shape-2-10" fill="#1E84AB" fill-opacity="0" fill-rule="evenodd" stroke="none" />
  <path d="M575.206 -3L499.205 73L461.205 112L510.205 112L531.201 113.028L545.781 128L576.206 161L576.206 46C576.206 39.3858 576.562 35.1218 576.334 22.9107C576.106 10.6997 575.838 3.9679 575.206 -3C575.206 -3 575.206 -3 575.206 -3L575.206 -3Z" id="Shape-2-13" fill="#1E84AB" fill-opacity="0" fill-rule="evenodd" stroke="none" />
  <path d="M1152.21 -3L1076.21 73L1038.21 112L1087.21 112L1108.2 113.028L1122.78 128L1153.21 161L1153.21 46C1153.21 39.3858 1153.56 35.1218 1153.33 22.9107C1153.11 10.6997 1152.84 3.9679 1152.21 -3C1152.21 -3 1152.21 -3 1152.21 -3L1152.21 -3Z" id="Shape-2-25" fill="#1E84AB" fill-opacity="0" fill-rule="evenodd" stroke="none" />
  <path d="M228.994 -495L76.4673 -342.537L0.20517 -264.299L98.5432 -264.299L140.68 -262.237L169.941 -232.201L231 -166L231 -396.701C231 -409.97 231.715 -418.524 231.257 -443.021C230.8 -467.517 230.262 -481.022 228.994 -495C228.994 -495 228.994 -495 228.994 -495L228.994 -495Z" id="Shape-2-11" fill="#C6D633" fill-rule="evenodd" stroke="none" />
  <path d="M459.621 -80.9999L346.676 31.1464L290.205 88.6952L363.023 88.6952L394.225 90.2122L415.893 112.305L461.107 161L461.107 -8.69495C461.107 -18.455 461.636 -24.7469 461.297 -42.7657C460.958 -60.7844 460.56 -70.718 459.621 -80.9999C459.621 -80.9999 459.621 -80.9999 459.621 -80.9999L459.621 -80.9999Z" id="Shape-2-12" fill="#1E84AB" fill-rule="evenodd" stroke="none" />
  <path d="M690.206 -3L614.205 73L576.205 112L625.205 112L646.201 113.028L660.781 128L691.206 161L691.206 46C691.206 39.3858 691.562 35.1218 691.334 22.9107C691.106 10.6997 690.838 3.9679 690.206 -3C690.206 -3 690.206 -3 690.206 -3L690.206 -3Z" id="Shape-2-14" fill="#C6D633" fill-rule="evenodd" stroke="none" />
  <path d="M1037.21 -497L961.205 -421L923.205 -382L972.205 -382L993.201 -380.972L1007.78 -366L1038.21 -333L1038.21 -448C1038.21 -454.614 1038.56 -458.878 1038.33 -471.089C1038.11 -483.3 1037.84 -490.032 1037.21 -497C1037.21 -497 1037.21 -497 1037.21 -497L1037.21 -497Z" id="Shape-2-15" fill="#1E84AB" fill-rule="evenodd" stroke="none" />
  <path d="M1036.21 -334L960.205 -258L922.205 -219L971.205 -219L992.201 -217.972L1006.78 -203L1037.21 -170L1037.21 -285C1037.21 -291.614 1037.56 -295.878 1037.33 -308.089C1037.11 -320.3 1036.84 -327.032 1036.21 -334C1036.21 -334 1036.21 -334 1036.21 -334L1036.21 -334Z" id="Shape-2-16" fill="#1E84AB" fill-opacity="0" fill-rule="evenodd" stroke="none" />
  <path d="M1035 -170L883.137 -18L807.205 60L905.118 60L947.072 62.056L976.206 92.0001L1037 158L1037 -71.9999C1037 -85.2283 1037.71 -93.7563 1037.26 -118.178C1036.8 -142.6 1036.27 -156.064 1035 -170C1035 -170 1035 -170 1035 -170L1035 -170Z" id="Shape-2-18" fill="#1E84AB" fill-rule="evenodd" stroke="none" />
  <path d="M690.206 -3L614.205 73L576.205 112L625.205 112L646.201 113.028L660.781 128L691.206 161L691.206 46C691.206 39.3858 691.562 35.1218 691.334 22.9107C691.106 10.6997 690.838 3.9679 690.206 -3C690.206 -3 690.206 -3 690.206 -3L690.206 -3Z" id="Shape-2-19" fill="#C6D633" fill-rule="evenodd" stroke="none" />
  <path d="M1037.21 -497L961.205 -421L923.205 -382L972.205 -382L993.201 -380.972L1007.78 -366L1038.21 -333L1038.21 -448C1038.21 -454.614 1038.56 -458.878 1038.33 -471.089C1038.11 -483.3 1037.84 -490.032 1037.21 -497C1037.21 -497 1037.21 -497 1037.21 -497L1037.21 -497Z" id="Shape-2-20" fill="#1E84AB" fill-rule="evenodd" stroke="none" />
  <path d="M1036.21 -334L960.205 -258L922.205 -219L971.205 -219L992.201 -217.972L1006.78 -203L1037.21 -170L1037.21 -285C1037.21 -291.614 1037.56 -295.878 1037.33 -308.089C1037.11 -320.3 1036.84 -327.032 1036.21 -334C1036.21 -334 1036.21 -334 1036.21 -334L1036.21 -334Z" id="Shape-2-21" fill="#1E84AB" fill-opacity="0" fill-rule="evenodd" stroke="none" />
  <path d="M805.621 -409L692.677 -296.854L636.205 -239.305L709.023 -239.305L740.225 -237.788L761.893 -215.695L807.107 -167L807.107 -336.695C807.107 -346.455 807.636 -352.747 807.297 -370.766C806.958 -388.785 806.56 -398.718 805.621 -409C805.621 -409 805.621 -409 805.621 -409L805.621 -409Z" id="Shape-2-24" fill="#C6D633" fill-rule="evenodd" stroke="none" />
  <path d="M1035 -170L883.137 -18L807.205 60L905.118 60L947.072 62.056L976.206 92.0001L1037 158L1037 -71.9999C1037 -85.2283 1037.71 -93.7563 1037.26 -118.178C1036.8 -142.6 1036.27 -156.064 1035 -170C1035 -170 1035 -170 1035 -170L1035 -170Z" id="Shape-2-23" fill="#1E84AB" fill-rule="evenodd" stroke="none" />
  <path d="M806.206 -331L730.205 -255L692.205 -216L741.205 -216L762.201 -214.972L776.781 -200L807.206 -167L807.206 -282C807.206 -288.614 807.562 -292.878 807.334 -305.089C807.106 -317.3 806.838 -324.032 806.206 -331C806.206 -331 806.206 -331 806.206 -331L806.206 -331Z" id="Shape-2-7" fill="#1E84AB" fill-opacity="0" fill-rule="evenodd" stroke="none" />
</svg>