<?xml version="1.0" encoding="utf-8"?>
<svg width="639px" height="335px" viewBox="0 0 639 335" version="1.1" xmlns:xlink="http://www.w3.org/1999/xlink" xmlns="http://www.w3.org/2000/svg">
  <defs>
    <path d="M0 0L639 0L639 335L0 335L0 0Z" id="path_1" />
    <clipPath id="clip_1">
      <use xlink:href="#path_1" />
    </clipPath>
  </defs>
  <g id="logo" clip-path="url(#clip_1)">
    <path d="M0 0L639 0L639 335L0 335L0 0Z" id="logo" fill="none" fill-rule="evenodd" stroke="none" />
    <path d="M35 99L35 156.1L72.8 155.8C109 155.5 110.7 155.4 115.2 153.3C129.5 146.7 136.9 131.3 132.7 116.9C130.5 109.4 126.2 104.7 118.2 100.9C112.4 98.1 111.8 97.5 113.4 96.6C118.8 93.4 123.6 89.1 125.4 85.5C128.3 79.9 128.4 64.3 125.5 58.5C122.7 52.8 116.7 47.4 110.2 44.8C104.7 42.6 103.3 42.5 69.8 42.2L35 41.9L35 99L35 99L35 99ZM96 66.8C100.1 68.8 102 72.1 102 77.3C102 80.4 101.3 81.9 98.6 84.6L95.2 88L78.1 88L61 88L61 76.5L61 65L76.8 65C89.7 65 93.1 65.3 96 66.8L96 66.8L96 66.8ZM104.1 111.8C106.4 114.4 107 115.9 107 119.8C106.9 131.3 103.5 133 79.3 133L61 133L61 120.4L61 107.9L81.1 108.2L101.2 108.5L104.1 111.8L104.1 111.8L104.1 111.8ZM183 43.5C173.3 46.2 166.8 50 159.4 57.4C147.9 69 143 81.5 143 99.5C143 116.7 147.8 128.9 159 140C170 151 182.8 156 200 156C216.6 156 228.4 151.8 239.2 142L244.5 137.1L238 131.1C228.7 122.5 227.9 122.2 223.8 125.3C215.6 131.4 212.2 132.5 201 132.5C192.1 132.5 189.9 132.2 186.5 130.3C181.2 127.5 176.6 122.5 174.1 117C170.2 108.3 167 109 211 109L250 109L250 99.7C250 73.6 237.3 52.9 216.5 45C208.7 42 191.3 41.3 183 43.5L183 43.5L183 43.5ZM207.9 67.6C211.1 69.2 214.3 71.9 216.1 74.3C218.8 78 222 86.4 222 89.7C222 90.7 216.9 91 196.5 91C182.5 91 171 90.9 171 90.7C171 88.7 174.7 78.9 176.5 76.1C179.5 71.4 181.6 69.5 187 67.1C193.5 64.1 201.3 64.3 207.9 67.6L207.9 67.6L207.9 67.6ZM295.7 42.7C295 43.8 253 154.9 253 155.5C253 155.8 259.2 156 266.8 156L280.5 156L284.5 145.2L288.5 134.5L312 134.2L335.5 134L339.6 144.7L343.7 155.5L357.7 155.8L371.7 156.1L349.7 99L327.6 42L311.9 42C303.2 42 295.9 42.3 295.7 42.7L295.7 42.7L295.7 42.7ZM320.4 93.9C324 103.5 326.8 111.5 326.6 111.7C326.4 111.9 319.8 111.9 311.8 111.8L297.3 111.5L304.1 93.5C307.9 83.6 311.3 74.8 311.6 74C312.1 72.8 312.4 72.9 313 74.5C313.4 75.6 316.7 84.3 320.4 93.9L320.4 93.9L320.4 93.9ZM372.2 78.2C372.6 112.4 372.7 114.9 374.8 121.1C380.4 138 394.8 151.5 411.1 155C418.9 156.7 432.1 155.8 439.2 153.1C451.7 148.3 463.4 136.3 468.3 123.3C470.4 117.8 470.5 115.8 470.8 79.7L471.1 42L458.5 42L446 42L446 74.8C446 100.4 445.7 108.7 444.6 112.4C438.1 133.8 412.1 137.1 401.5 117.9L398.5 112.5L398.2 77.2L397.9 42L384.9 42L371.8 42L372.2 78.2L372.2 78.2L372.2 78.2ZM143 234.9L143 292L156 292L169 292L169 276.5L169 261L181.8 261C188.9 261 197.3 260.5 200.6 259.9C220.2 256.3 232 241.1 232 219.5C232 215 231.3 208.9 230.4 205.9C227.1 194.7 218.5 184.9 208.1 180.8C202.8 178.7 200.9 178.5 172.8 178.2L143 177.9L143 234.9L143 234.9L143 234.9ZM198 202.2C204.2 205.4 207 210.5 207 219C207 227.6 204.1 233.6 198.5 236.4C195.3 238.1 192.1 238.5 181.8 238.8L169 239.2L169 219.6L169 200L181.3 200C192 200 194.1 200.3 198 202.2L198 202.2L198 202.2ZM247 235L247 292L280 292L313 292L313 279.5L313 267L293 267L273 267L273 222.5L273 178L260 178L247 178L247 235L247 235L247 235ZM362.3 179.5C346.8 183.7 332.6 196.2 326.1 211.3C312.5 242.9 328.9 280.6 360.3 290.2C365.8 291.8 369 292.1 376.3 291.8C387.1 291.3 393.2 288.7 401.1 281.3C403.8 278.8 406.2 276.9 406.4 277.1C406.6 277.3 407.4 280.6 408.2 284.5L409.6 291.5L420.3 291.8L431 292.1L431 261C431 226.2 430.2 219.5 424.7 208.1C420.6 199.6 410 188.3 402.2 184.2C399 182.5 393.7 180.4 390.5 179.5C383.2 177.6 369.3 177.7 362.3 179.5L362.3 179.5L362.3 179.5ZM382.6 202.5C396 206.5 404.7 220.8 403.8 237.5C402 271.2 363.8 280.8 349.2 251.1C346.8 246.1 346.5 244.4 346.5 235C346.5 225.5 346.8 223.9 349.3 218.8C354.3 208.7 364.8 201.3 374.6 201.1C376.3 201 379.9 201.7 382.6 202.5L382.6 202.5L382.6 202.5ZM449 235L449 292L462 292L475 292L475.2 257.9L475.5 223.7L498.5 257.9L521.4 292L535.2 292L549 292L549 235L549 178L536 178L523 178L523 211.7C523 238.7 522.7 245.2 521.8 244.2C521.1 243.5 510.6 228.4 498.5 210.7L476.4 178.5L462.7 178.2L449 177.9L449 235L449 235L449 235Z" id="Group" fill="#1E84AB" fill-rule="evenodd" stroke="none" />
    <path d="M598.352 42.9L522.351 118.9L484.351 157.9L533.351 157.9L554.347 158.928L568.927 173.9L599.352 206.9L599.352 91.9C599.352 85.2858 599.708 81.0218 599.48 68.8107C599.252 56.5997 598.984 49.8679 598.352 42.9C598.352 42.9 598.352 42.9 598.352 42.9L598.352 42.9Z" id="Shape-2" fill="#C6D633" fill-rule="evenodd" stroke="none" />
  </g>
</svg>